<?xml version="1.0" encoding="iso-8859-1"?>
<!-- Uploaded to: SVG Repo, www.svgrepo.com, Generator: SVG Repo Mixer Tools -->
<svg height="800px" width="800px" version="1.1" id="Layer_1" xmlns="http://www.w3.org/2000/svg" xmlns:xlink="http://www.w3.org/1999/xlink" 
	 viewBox="0 0 512 512" xml:space="preserve">
<g transform="translate(1 -9)">
	<path style="fill:#1CD759;" d="M115.907,37.16c5.12-9.387,15.36-19.627,34.987-20.48c29.013-0.853,56.32,45.227,66.56,55.467
		c-8.533,8.533-12.8,18.773-12.8,30.72c0,7.68,2.56,14.507,5.973,21.333c0,42.667-58.027,71.68-82.773,46.933
		c-18.773-18.773-16.213-78.507-17.067-92.16C109.933,70.44,111.64,44.84,115.907,37.16"/>
	<path style="fill:#FCC309;" d="M426.52,60.2H357.4c0.853,7.68,0.853,15.36,0,18.773c-0.853,9.387,0,41.813-5.12,66.56h74.24
		c14.507,0,25.6-11.093,25.6-25.6V85.8C452.12,71.293,441.027,60.2,426.52,60.2"/>
	<path style="fill:#1CD759;" d="M353.133,37.16c-5.12-9.387-15.36-19.627-34.987-20.48c4.267,0-51.2,67.413-40.96,55.467
		c7.68,7.68,11.947,17.92,11.947,29.867c0,7.68-2.56,14.507-5.973,21.333c0,42.667,32.427,71.68,57.173,46.933
		c18.773-18.773,15.36-78.507,17.067-92.16C359.107,70.44,357.4,44.84,353.133,37.16"/>
	<path style="fill:#15A143;" d="M373.613,36.307c-5.12-9.387-15.36-19.627-34.987-20.48c-4.267,0-7.68,0.853-11.947,2.56
		c11.093,3.413,17.92,11.093,21.333,17.92c4.267,7.68,5.12,33.28,5.12,41.813c-0.853,13.653,1.707,73.387-17.067,92.16
		c-3.413,3.413-6.827,5.973-11.093,7.68c13.653,3.413,27.307,1.707,36.693-7.68c18.773-18.773,15.36-78.507,17.067-92.16
		C379.587,69.587,377.88,43.987,373.613,36.307"/>
	<path style="fill:#33A9F8;" d="M247.32,60.2c-3.413,0-5.973,0-8.533,0.853c17.92,4.267,25.6,21.333,25.6,41.813
		s-7.68,37.547-25.6,41.813c2.56,0.853,5.973,0.853,8.533,0.853c23.893,0,42.667-18.773,42.667-42.667S271.213,60.2,247.32,60.2"/>
	<path style="fill:#54C9FD;" d="M264.387,102.867c0,23.893-10.24,42.667-34.133,42.667s-25.6-18.773-25.6-42.667
		s1.707-42.667,25.6-42.667S264.387,78.973,264.387,102.867"/>
	<path style="fill:#FCC309;" d="M110.787,78.973c0-3.413,0-11.093,0-18.773H42.52c-14.507,0-25.6,11.093-25.6,25.6v34.133
		c0,14.507,11.093,25.6,25.6,25.6h73.387C110.787,120.787,111.64,88.36,110.787,78.973"/>
	<path style="fill:#FFFFFF;" d="M42.52,145.533h25.6c-14.507,0-25.6-11.093-25.6-25.6V85.8c0-14.507,11.093-25.6,25.6-25.6h-25.6
		c-14.507,0-25.6,11.093-25.6,25.6v34.133C16.92,134.44,28.013,145.533,42.52,145.533"/>
	<path style="fill:#FFDD09;" d="M378.733,145.533c-2.56,10.24-5.973,19.627-11.947,25.6c-14.507,14.507-39.253,10.24-58.027-3.413
		l0,0l19.627,41.813l-30.72-5.12l-16.213,26.453l-34.133-85.333l0,0l-39.253,85.333l-16.213-26.453l-29.867,5.12l17.067-37.547l0,0
		c-17.92,10.24-39.253,11.093-51.2-0.853c-5.12-5.12-9.387-14.507-11.947-25.6H51.053v341.333c0,14.507,11.093,25.6,25.6,25.6
		h341.333c14.507,0,25.6-11.093,25.6-25.6V145.533H378.733z"/>
	<path style="fill:#FD9808;" d="M417.987,145.533v341.333c0,14.507-11.093,25.6-25.6,25.6h25.6c14.507,0,25.6-11.093,25.6-25.6
		V145.533H417.987z"/>
	<path style="fill:#FFDD09;" d="M443.587,145.533v341.333c0,14.507-11.093,25.6-25.6,25.6h25.6c14.507,0,25.6-11.093,25.6-25.6
		V145.533H443.587z"/>
	<path style="fill:#FFFFFF;" d="M76.653,145.533v341.333c0,14.507,11.093,25.6,25.6,25.6h-25.6c-14.507,0-25.6-11.093-25.6-25.6
		V145.533H76.653z"/>
	<path style="fill:#FD9808;" d="M452.12,60.2h-25.6c14.507,0,25.6,11.093,25.6,25.6v34.133c0,14.507-11.093,25.6-25.6,25.6h25.6
		c14.507,0,25.6-11.093,25.6-25.6V85.8C477.72,71.293,466.627,60.2,452.12,60.2"/>
	<path style="fill:#FFDD09;" d="M477.72,60.2h-25.6c14.507,0,25.6,11.093,25.6,25.6v34.133c0,14.507-11.093,25.6-25.6,25.6h25.6
		c14.507,0,25.6-11.093,25.6-25.6V85.8C503.32,71.293,492.227,60.2,477.72,60.2"/>
	<g>
		<path style="fill:#1CD759;" d="M204.653,102.867l-34.133-25.6"/>
		<path style="fill:#1CD759;" d="M204.653,102.867l-34.133,25.6"/>
		<path style="fill:#1CD759;" d="M289.987,102.867l34.133-25.6"/>
		<path style="fill:#1CD759;" d="M289.987,102.867l34.133,25.6"/>
		<path style="fill:#1CD759;" d="M284.013,124.2L284.013,124.2c-6.827,12.8-20.48,21.333-36.693,21.333
			c-16.213,0-29.867-8.533-36.693-21.333l0,0c0,21.333-13.653,38.4-30.72,47.787l-17.067,37.547l30.72-5.12l16.213,26.453
			l37.547-85.333l34.133,85.333l16.213-26.453l30.72,5.12L308.76,167.72C294.253,157.48,284.013,142.12,284.013,124.2"/>
	</g>
	<path style="fill:#DB4D6C;" d="M247.32,299.133c9.387-23.04,43.52-40.96,27.307-40.96c20.48,0,37.547,10.24,50.347,25.6
		c17.92,20.48,26.453,64.853-7.68,97.28c-17.067,17.067-79.36,80.213-79.36,80.213s-69.973-64-87.04-80.213
		c-34.133-32.427-26.453-76.8-7.68-97.28c-23.04,25.6,42.667-25.6,25.6-25.6C194.413,258.173,237.933,276.093,247.32,299.133"/>
	<path style="fill:#D21F47;" d="M243.053,480.04c0,0,78.507-81.92,95.573-98.987c33.28-32.427,25.6-76.8,7.68-97.28
		c-13.653-14.507-29.867-25.6-50.347-25.6c-4.267,0-7.68,0.853-11.947,1.707c14.507,3.413,27.307,11.947,37.547,23.893
		c17.92,20.48,26.453,64.853-7.68,97.28c-17.067,17.067-79.36,80.213-79.36,80.213"/>
	<path d="M247.32,154.067c-28.16,0-51.2-23.04-51.2-51.2s23.04-51.2,51.2-51.2s51.2,23.04,51.2,51.2S275.48,154.067,247.32,154.067z
		 M247.32,68.733c-18.773,0-34.133,15.36-34.133,34.133S228.547,137,247.32,137s34.133-15.36,34.133-34.133
		S266.093,68.733,247.32,68.733z"/>
	<path d="M150.04,188.2c-11.947,0-22.187-4.267-29.867-11.093c-16.213-16.213-18.773-53.76-18.773-87.04c0-4.267,0-8.533,0-10.24
		c-0.853-7.68,0-35.84,5.973-46.08C115.907,18.387,130.413,9.853,150.04,9h0.853c28.16,0,51.2,31.573,65.707,50.347
		c2.56,3.413,5.12,5.973,5.973,8.533c2.56,3.413,2.56,8.533,0,11.947c-7.68,5.973-11.093,13.653-11.093,23.04
		c0,5.973,1.707,11.947,5.12,17.067c0.853,1.707,0.853,2.56,0.853,4.267c0,29.013-22.187,50.347-43.52,59.733
		C165.4,186.493,157.72,188.2,150.04,188.2z M149.187,26.067L149.187,26.067c-12.8,0-22.187,5.12-28.16,15.36l0,0
		c-2.56,5.12-4.267,28.16-3.413,36.693c0,2.56,0,6.827,0,11.947c0,18.773,0.853,62.293,13.653,75.093
		c9.387,9.387,23.893,7.68,34.987,2.56c16.213-6.827,31.573-22.187,32.427-41.813c-2.56-7.68-4.267-15.36-4.267-23.04
		c0-11.093,3.413-21.333,9.387-29.867c-0.853-0.853-1.707-2.56-2.56-3.413C191,55.08,168.813,26.067,149.187,26.067z M114.2,37.16
		L114.2,37.16L114.2,37.16z"/>
	<path d="M204.653,111.4c-1.707,0-3.413-0.853-5.12-1.707l-34.133-25.6c-3.413-2.56-4.267-8.533-1.707-11.947
		s8.533-4.267,11.947-1.707l34.133,25.6c3.413,2.56,4.267,8.533,1.707,11.947C209.773,109.693,207.213,111.4,204.653,111.4z"/>
	<path d="M170.52,137c-2.56,0-5.12-0.853-6.827-3.413c-2.56-3.413-1.707-9.387,1.707-11.947l34.133-25.6
		c3.413-2.56,9.387-1.707,11.947,1.707c2.56,3.413,1.707,9.387-1.707,11.947l-34.133,25.6C173.933,136.147,172.227,137,170.52,137z"
		/>
	<path d="M342.893,188.2c-7.68,0-16.213-1.707-23.893-5.12c-21.333-8.533-43.52-30.72-43.52-59.733c0-1.707,0-2.56,0.853-4.267
		c3.413-5.12,5.12-11.093,5.12-17.067c0-8.533-3.413-17.067-9.387-23.893c-3.413-3.413-3.413-8.533,0-11.947
		c1.707-1.707,3.413-4.267,5.973-8.533C291.693,40.573,315.587,9,343.747,9h0.853c18.773,0,34.133,9.387,42.667,24.747l0,0
		c5.973,10.24,5.973,39.253,5.973,46.08c0,2.56,0,5.973,0,10.24c-0.853,33.28-2.56,70.827-18.773,87.04
		C365.08,184.787,354.84,188.2,342.893,188.2z M292.547,125.907c0.853,19.627,17.067,34.987,32.427,41.813
		c11.093,4.267,26.453,5.973,34.987-2.56c12.8-12.8,13.653-56.32,13.653-75.093c0-5.12,0-9.387,0-11.947
		c0.853-8.533-0.853-31.573-3.413-36.693l0,0c-5.12-10.24-14.507-15.36-27.307-15.36l0,0c-19.627,0-41.813,29.013-52.053,43.52
		c-0.853,0.853-1.707,2.56-2.56,3.413c5.973,8.533,9.387,18.773,9.387,29.867C298.52,110.547,296.813,118.227,292.547,125.907z"/>
	<path d="M289.987,111.4c-2.56,0-5.12-0.853-6.827-3.413c-2.56-3.413-1.707-9.387,1.707-11.947L319,70.44
		c3.413-2.56,9.387-1.707,11.947,1.707c2.56,3.413,1.707,9.387-1.707,11.947l-34.133,25.6
		C293.4,110.547,291.693,111.4,289.987,111.4z"/>
	<path d="M324.12,137c-1.707,0-3.413-0.853-5.12-1.707l-34.133-25.6c-3.413-2.56-4.267-8.533-1.707-11.947
		c2.56-3.413,8.533-4.267,11.947-1.707l34.133,25.6c3.413,2.56,4.267,8.533,1.707,11.947C329.24,135.293,326.68,137,324.12,137z"/>
	<path d="M282.307,240.253C282.307,240.253,281.453,240.253,282.307,240.253c-4.267,0-6.827-2.56-7.68-5.12l-26.453-67.413
		l-30.72,67.413c-1.707,2.56-4.267,5.12-7.68,5.12s-5.973-1.707-7.68-4.267l-12.8-21.333l-24.747,4.267
		c-3.413,0.853-5.973-0.853-8.533-3.413c-1.707-2.56-2.56-5.973-0.853-8.533l17.067-37.547c0.853-1.707,1.707-2.56,3.413-4.267
		c12.8-6.827,26.453-21.333,26.453-40.96c0-4.267,2.56-6.827,5.973-8.533c3.413-0.853,7.68,0.853,9.387,4.267
		C223.427,131.027,234.52,137,246.467,137l0,0c11.947,0,23.04-6.827,29.013-17.067c1.707-3.413,5.973-5.12,9.387-4.267
		c3.413,0.853,5.973,4.267,5.973,8.533c0,13.653,7.68,27.307,20.48,36.693c0.853,0.853,1.707,1.707,2.56,3.413l19.627,41.813
		c1.707,2.56,0.853,5.973-0.853,8.533c-1.707,2.56-5.12,3.413-8.533,3.413l-21.333-3.413l-12.8,21.333
		C288.28,238.547,284.867,240.253,282.307,240.253z M193.56,196.733c2.56,0,5.973,1.707,7.68,4.267l7.68,12.8l27.307-60.587
		c-6.827-1.707-13.653-5.12-18.773-9.387c-5.12,13.653-15.36,26.453-29.867,34.987l-9.387,20.48l14.507-2.56
		C192.707,196.733,192.707,196.733,193.56,196.733z M260.12,153.213l23.893,59.733L290.84,201c1.707-2.56,5.12-4.267,8.533-4.267
		l14.507,2.56l-11.947-25.6c-11.093-8.533-18.773-18.773-23.04-30.72C273.773,148.093,266.947,151.507,260.12,153.213z"/>
	<path d="M452.12,154.067h-73.387c-2.56,0-5.12-0.853-6.827-3.413c-1.707-1.707-2.56-4.267-1.707-6.827
		c4.267-17.92,4.267-39.253,5.12-53.76c0-5.12,0-9.387,0-11.947c0-2.56,0-9.387,0-17.067c0-2.56,0.853-5.12,2.56-6.827
		c1.707-1.707,4.267-2.56,5.973-2.56h68.267c18.773,0,34.133,15.36,34.133,34.133v34.133
		C486.253,138.707,470.893,154.067,452.12,154.067z M388.973,137h63.147c9.387,0,17.067-7.68,17.067-17.067V85.8
		c0-9.387-7.68-17.067-17.067-17.067h-59.733c0,4.267,0,8.533,0,11.093c0,2.56,0,5.973,0,10.24
		C391.533,102.013,391.533,119.933,388.973,137z"/>
	<path d="M114.2,154.067H40.813c-18.773,0-34.133-15.36-34.133-34.133V85.8c0-18.773,15.36-34.133,34.133-34.133h69.12
		c2.56,0,4.267,0.853,5.973,2.56s2.56,4.267,2.56,6.827c-0.853,7.68-0.853,14.507,0,17.067l0,0c0,2.56,0,6.827,0,11.947
		c0,13.653,0.853,35.84,5.12,53.76c0.853,2.56,0,5.12-1.707,6.827C119.32,153.213,117.613,154.067,114.2,154.067z M40.813,68.733
		c-9.387,0-17.067,7.68-17.067,17.067v34.133c0,9.387,7.68,17.067,17.067,17.067h63.147c-2.56-17.067-2.56-34.987-3.413-46.933
		c0-4.267,0-8.533,0-10.24l0,0c0-2.56,0-6.827,0-11.093C100.547,68.733,40.813,68.733,40.813,68.733z"/>
	<path d="M417.987,521H76.653c-18.773,0-34.133-15.36-34.133-34.133v-153.6c0-5.12,3.413-8.533,8.533-8.533s8.533,3.413,8.533,8.533
		v153.6c0,9.387,7.68,17.067,17.067,17.067h341.333c9.387,0,17.067-7.68,17.067-17.067v-332.8h-50.347
		c-2.56,10.24-6.827,17.92-11.947,23.04c-11.947,11.947-29.867,13.653-46.933,8.533l9.387,19.627
		c1.707,2.56,0.853,5.973-0.853,8.533c-1.707,2.56-5.12,3.413-8.533,3.413l-23.893-3.413l-12.8,21.333
		c-1.707,2.56-5.12,4.267-7.68,4.267c-3.413,0-5.973-2.56-6.827-5.12l-26.453-67.413l-30.72,67.413
		c-1.707,2.56-4.267,5.12-7.68,5.12s-5.973-1.707-7.68-4.267L188.44,213.8l-24.747,4.267c-3.413,0.853-5.973-0.853-8.533-3.413
		c-1.707-2.56-2.56-5.973-0.853-8.533l8.533-18.773c-16.213,3.413-30.72,0-40.96-10.24c-5.12-5.12-9.387-12.8-11.947-23.04H59.587
		V265c0,5.12-3.413,8.533-8.533,8.533S42.52,270.12,42.52,265V145.533c0-5.12,3.413-8.533,8.533-8.533h64.853
		c4.267,0,7.68,2.56,8.533,6.827c2.56,12.8,6.827,18.773,9.387,21.333c10.24,10.24,28.16,6.827,40.96,0
		c3.413-1.707,7.68-1.707,10.24,0.853c2.56,2.56,3.413,6.827,1.707,10.24l-10.24,23.04l14.507-2.56
		c3.413-0.853,6.827,0.853,8.533,4.267l7.68,12.8l32.427-70.827c1.707-3.413,4.267-5.12,7.68-5.12s6.827,1.707,7.68,5.12
		l27.307,69.12l6.827-11.947c1.707-3.413,5.12-4.267,8.533-4.267l14.507,2.56l-11.947-27.307c-1.707-3.413-0.853-7.68,2.56-10.24
		c3.413-2.56,7.68-2.56,10.24,0c14.507,10.24,35.84,15.36,47.787,4.267c2.56-2.56,5.973-8.533,9.387-21.333
		c0.853-4.267,4.267-6.827,8.533-6.827h64.853c5.12,0,8.533,3.413,8.533,8.533v341.333C452.12,505.64,436.76,521,417.987,521z"/>
	<path d="M247.32,488.573L247.32,488.573c-2.56,0-4.267-0.853-5.973-2.56c-0.853-0.853-78.507-81.92-95.573-98.133
		c-39.253-37.547-28.16-87.04-7.68-109.227c17.067-18.773,35.84-28.16,57.173-28.16c20.48,0,40.107,11.093,52.053,30.72
		c12.8-19.627,31.573-30.72,52.907-30.72c20.48,0,40.107,9.387,57.173,28.16c19.627,22.187,30.72,71.68-7.68,109.227
		c-17.067,16.213-94.72,98.133-95.573,98.987C252.44,487.72,249.88,488.573,247.32,488.573z M195.267,266.707
		c-15.36,0-30.72,7.68-44.373,22.187c-15.36,17.067-23.893,56.32,6.827,85.333c14.507,13.653,70.827,72.533,89.6,93.013
		c18.773-19.627,75.093-78.507,89.6-92.16c30.72-29.867,22.187-68.267,6.827-85.333c-13.653-14.507-28.16-22.187-44.373-22.187
		c-23.04,0-38.4,17.92-44.373,34.987c-0.853,3.413-4.267,5.12-7.68,5.12s-6.827-2.56-7.68-5.12
		C232.813,285.48,217.453,266.707,195.267,266.707z"/>
	<path d="M59.587,298.28c0,5.12-3.413,8.533-8.533,8.533s-8.533-3.413-8.533-8.533s3.413-8.533,8.533-8.533
		S59.587,293.16,59.587,298.28"/>
</g>
</svg>